<svg xmlns="http://www.w3.org/2000/svg" width="81.931" height="81.886" viewBox="0 0 81.931 81.886">
  <g id="muslim_1_" data-name="muslim (1)" transform="translate(0 -0.141)" style="mix-blend-mode: luminosity;isolation: isolate">
    <g id="Group_21" data-name="Group 21" transform="translate(0 0.141)">
      <g id="Group_20" data-name="Group 20">
        <g id="Group_19" data-name="Group 19">
          <g id="Group_18" data-name="Group 18">
            <g id="Group_17" data-name="Group 17">
              <g id="Group_16" data-name="Group 16">
                <g id="XMLID_1374_">
                  <g id="XMLID_1375_">
                    <g id="XMLID_1376_">
                      <g id="XMLID_1445_">
                        <g id="XMLID_1446_">
                          <g id="XMLID_1447_">
                            <g id="XMLID_1448_">
                              <g id="XMLID_1449_">
                                <g id="XMLID_1506_">
                                  <g id="XMLID_1507_">
                                    <g id="XMLID_1508_">
                                      <g id="XMLID_1509_">
                                        <g id="XMLID_1510_">
                                          <g id="XMLID_1511_">
                                            <g id="Group_15" data-name="Group 15">
                                              <path id="Path_16" data-name="Path 16" d="M81.886,41.084a40.784,40.784,0,0,1-9.639,26.391c-7.51,8.9-18.747,1.744-31.3,1.744s-23.793,7.154-31.3-1.744A40.943,40.943,0,1,1,81.886,41.084Z" transform="translate(0 -0.141)" fill="#00cb75"/>
                                            </g>
                                          </g>
                                        </g>
                                      </g>
                                    </g>
                                  </g>
                                </g>
                              </g>
                            </g>
                          </g>
                        </g>
                      </g>
                    </g>
                  </g>
                </g>
              </g>
            </g>
          </g>
        </g>
      </g>
    </g>
    <path id="Path_17" data-name="Path 17" d="M160.585,74.3l20.3,20.3-2.294,14.575L203.907,112a12.578,12.578,0,0,0,3.287-2.811A40.784,40.784,0,0,0,216.833,82.8a41.412,41.412,0,0,0-.234-4.4L187.946,49.745Z" transform="translate(-134.902 -41.671)" fill="#00a78e"/>
    <g id="Group_25" data-name="Group 25" transform="translate(24.257 4.913)">
      <g id="Group_22" data-name="Group 22" transform="translate(8.409 35.271)">
        <path id="Path_18" data-name="Path 18" d="M220.779,268.021l-.01.016-8.243.56-8.257-.56-.019-17.508,16.51-.018Z" transform="translate(-204.25 -250.511)" fill="#e58e53"/>
      </g>
      <g id="Group_23" data-name="Group 23" transform="translate(16.686 35.271)">
        <path id="Path_19" data-name="Path 19" d="M264.252,268.02,256,268.6V250.519l8.234-.008.016,15.655Z" transform="translate(-256 -250.511)" fill="#d17442"/>
      </g>
      <g id="Group_24" data-name="Group 24" transform="translate(0 5.179)">
        <path id="Path_20" data-name="Path 20" d="M182.461,74.737c-.605-9.047-7.927-12.383-14.12-12.377s-13.508,3.357-14.094,12.406c-1.6.311-2.736,2.413-2.556,4.111l.278,3.864a3.2,3.2,0,0,0,3.486,2.888l.3-.033c2.744,7.344,6.673,9.6,9.943,10.5a9.989,9.989,0,0,0,5.319,0c3.28-.906,7.231-3.167,9.961-10.522l.3.032a3.2,3.2,0,0,0,3.48-2.9l.27-3.865C185.2,77.144,184.062,75.045,182.461,74.737Z" transform="translate(-151.672 -62.36)" fill="#f4af71"/>
        <path id="Path_21" data-name="Path 21" d="M256,96.455a10.018,10.018,0,0,0,2.657-.362c3.28-.906,7.231-3.167,9.961-10.522l.3.032a3.2,3.2,0,0,0,3.48-2.9l.271-3.865c.177-1.7-.962-3.8-2.564-4.106-.6-9.039-7.914-12.377-14.1-12.377Z" transform="translate(-239.314 -62.36)" fill="#e58e53"/>
        <path id="Path_22" data-name="Path 22" d="M165.147,110.153v6.124h3.048l3.206-7.745Z" transform="translate(-162.992 -101.148)" fill="#5b5555"/>
        <path id="Path_23" data-name="Path 23" d="M314,110.153v6.124h-3.048l-3.206-7.745Z" transform="translate(-282.788 -101.148)" fill="#3f3a3a"/>
      </g>
      <path id="Path_24" data-name="Path 24" d="M185.472,29.977H173.883a7.852,7.852,0,0,0-7.787,6.845l-.949,7.34h29.061l-.949-7.34a7.852,7.852,0,0,0-7.787-6.845Z" transform="translate(-162.992 -29.977)" fill="#fff"/>
      <path id="Path_25" data-name="Path 25" d="M270.53,44.163H256V29.978h5.794a7.852,7.852,0,0,1,7.787,6.845Z" transform="translate(-239.314 -29.978)" fill="#d8f1fb"/>
      <path id="Path_26" data-name="Path 26" d="M198.524,317.987H187.582V307.045h6.853a4.089,4.089,0,0,1,4.089,4.089v6.853Z" transform="translate(-181.839 -262.733)" fill="#e7f9fb"/>
      <path id="Path_27" data-name="Path 27" d="M256,317.987h10.942V307.045h-6.853A4.089,4.089,0,0,0,256,311.134v6.853Z" transform="translate(-239.314 -262.733)" fill="#d8f1fb"/>
    </g>
    <path id="Path_28" data-name="Path 28" d="M122.878,350.95v3.081a40.945,40.945,0,0,1-62.608,0V350.95a9.7,9.7,0,0,1,9.7-9.7h43.214A9.7,9.7,0,0,1,122.878,350.95Z" transform="translate(-50.631 -286.557)" fill="#fff"/>
    <path id="Path_29" data-name="Path 29" d="M287.3,350.948v3.082A40.858,40.858,0,0,1,256,368.582V341.251h21.607a9.7,9.7,0,0,1,9.7,9.7Z" transform="translate(-215.057 -286.555)" fill="#e7f9fb"/>
  </g>
</svg>
