<svg id="reading-book" xmlns="http://www.w3.org/2000/svg" width="26.452" height="31.496" viewBox="0 0 26.452 31.496">
  <circle id="Ellipse_2" data-name="Ellipse 2" cx="5.295" cy="5.295" r="5.295" transform="translate(7.942)" fill="#fff"/>
  <path id="Path_1" data-name="Path 1" d="M150.191,181.515a7.06,7.06,0,0,1-7.684,0,10.755,10.755,0,0,0-3.345,2.043l7.187,2.7,7.187-2.7A10.753,10.753,0,0,0,150.191,181.515Z" transform="translate(-133.123 -170.349)" fill="#fff"/>
  <path id="Path_2" data-name="Path 2" d="M412.538,310h-.615a.923.923,0,0,0-.923.923v2.461a.923.923,0,0,0,.923.923h.615a2.153,2.153,0,1,0,0-4.306Z" transform="translate(-388.239 -290.93)" fill="#fff"/>
  <path id="Path_3" data-name="Path 3" d="M81.4,231.768a.923.923,0,0,0-.4.758v2.054h.308a2.771,2.771,0,0,1,2.768,2.768v2.461a2.771,2.771,0,0,1-2.768,2.768H81v1.944a.923.923,0,0,0,.6.864l9.244,3.466V234.886l-8.6-3.223A.922.922,0,0,0,81.4,231.768Z" transform="translate(-78.539 -217.356)" fill="#fff"/>
  <path id="Path_4" data-name="Path 4" d="M277.767,239.81v-2.461a2.771,2.771,0,0,1,2.768-2.768h.308v-2.054a.923.923,0,0,0-1.247-.864l-8.6,3.223v13.967l9.244-3.466a.923.923,0,0,0,.6-.864v-1.944h-.308A2.771,2.771,0,0,1,277.767,239.81Z" transform="translate(-256.851 -217.356)" fill="#fff"/>
  <path id="Path_5" data-name="Path 5" d="M44.691,313.383v-2.461a.923.923,0,0,0-.923-.923h-.615a2.153,2.153,0,1,0,0,4.306h.615A.923.923,0,0,0,44.691,313.383Z" transform="translate(-41 -290.93)" fill="#fff"/>
</svg>
