<svg xmlns="http://www.w3.org/2000/svg" width="81.931" height="81.931" viewBox="0 0 81.931 81.931">
  <g id="muslim" style="mix-blend-mode: luminosity;isolation: isolate">
    <g id="Group_10" data-name="Group 10">
      <g id="Group_9" data-name="Group 9">
        <g id="Group_8" data-name="Group 8">
          <g id="Group_7" data-name="Group 7">
            <g id="Group_6" data-name="Group 6">
              <g id="Group_5" data-name="Group 5">
                <g id="XMLID_1076_">
                  <g id="XMLID_1077_">
                    <g id="XMLID_1078_">
                      <g id="XMLID_1079_">
                        <g id="XMLID_1080_">
                          <g id="XMLID_1081_">
                            <g id="XMLID_1082_">
                              <g id="XMLID_1083_">
                                <g id="XMLID_1084_">
                                  <g id="XMLID_1085_">
                                    <g id="XMLID_1086_">
                                      <g id="XMLID_1087_">
                                        <g id="XMLID_1088_">
                                          <g id="XMLID_1089_">
                                            <g id="Group_4" data-name="Group 4">
                                              <path id="Path_6" data-name="Path 6" d="M13.472,71.336a40.838,40.838,0,1,1,10.644,6.98,40.866,40.866,0,0,1-10.644-6.98Z" fill="#ffef4a"/>
                                            </g>
                                          </g>
                                        </g>
                                      </g>
                                    </g>
                                  </g>
                                </g>
                              </g>
                            </g>
                          </g>
                        </g>
                      </g>
                    </g>
                  </g>
                </g>
              </g>
            </g>
          </g>
        </g>
      </g>
    </g>
    <path id="Path_7" data-name="Path 7" d="M111.683,141.255a40.963,40.963,0,0,0,40.966-40.966q0-1.795-.152-3.552L126.385,70.625,84.19,130.66a41.108,41.108,0,0,0,27.493,10.6Z" transform="translate(-70.718 -59.323)" fill="#ffd321"/>
    <g id="Group_11" data-name="Group 11" transform="translate(13.472 44.457)">
      <path id="Path_8" data-name="Path 8" d="M84.19,304.7V287.023a9.2,9.2,0,0,1,9.2-9.2h36.581a9.2,9.2,0,0,1,9.2,9.2V304.7a40.929,40.929,0,0,1-54.987,0Z" transform="translate(-84.19 -277.82)" fill="#ff7038"/>
    </g>
    <g id="Group_12" data-name="Group 12" transform="translate(40.966 44.457)">
      <path id="Path_9" data-name="Path 9" d="M283.493,287.023V304.7A40.822,40.822,0,0,1,256,315.294V277.82h18.29A9.2,9.2,0,0,1,283.493,287.023Z" transform="translate(-256 -277.82)" fill="#ff405c"/>
    </g>
    <path id="Path_10" data-name="Path 10" d="M167.822,50.22a21.066,21.066,0,0,0-16.3-20.208h0a18.107,18.107,0,0,0-8.18,0A21.066,21.066,0,0,0,127.03,50.22l-.3,19.93a15.053,15.053,0,0,0,15.051,15.276h11.28A15.053,15.053,0,0,0,168.118,70.15Z" transform="translate(-106.453 -24.815)" fill="#ff405c"/>
    <path id="Path_11" data-name="Path 11" d="M261.313,85.425H256.1V29.542a18.014,18.014,0,0,1,4.09.47,21.064,21.064,0,0,1,16.3,20.208l.289,19.514a15.462,15.462,0,0,1-15.46,15.691Z" transform="translate(-215.114 -24.815)" fill="#c1126b"/>
    <path id="Path_12" data-name="Path 12" d="M193.632,140.932A11.882,11.882,0,0,1,181.75,129.05v-7.361l11.9-2.609,11.866,2.609v7.361A11.882,11.882,0,0,1,193.632,140.932Z" transform="translate(-152.666 -100.025)" fill="#fcc78d"/>
    <path id="Path_13" data-name="Path 13" d="M267.961,121.691v7.361A11.881,11.881,0,0,1,256.1,140.934V119.083Z" transform="translate(-215.114 -100.027)" fill="#f4af71"/>
    <g id="Group_13" data-name="Group 13" transform="translate(29.084 9.783)">
      <path id="Path_14" data-name="Path 14" d="M193.632,61.135A11.882,11.882,0,0,0,181.75,73.017h23.763A11.882,11.882,0,0,0,193.632,61.135Z" transform="translate(-181.75 -61.135)" fill="#ff7038"/>
    </g>
    <g id="Group_14" data-name="Group 14" transform="translate(40.981 9.783)">
      <path id="Path_15" data-name="Path 15" d="M267.961,73.015H256.1V61.133a11.883,11.883,0,0,1,11.866,11.882Z" transform="translate(-256.095 -61.133)" fill="#ff405c"/>
    </g>
  </g>
</svg>
